<?xml version="1.0" encoding="UTF-8"?>
<!DOCTYPE svg PUBLIC "-//W3C//DTD SVG 1.1//EN" "http://www.w3.org/Graphics/SVG/1.1/DTD/svg11.dtd">
<svg version="1.1" xmlns="http://www.w3.org/2000/svg" xmlns:xlink="http://www.w3.org/1999/xlink" x="0" y="0" width="824.671" height="1138.394" viewBox="0, 0, 916.301, 1264.882">
  <g id="Layer_1" transform="translate(-440.751, -435.219)">
    <path d="M1311.979,1084.5 L1219.388,1201.601" fill-opacity="0" stroke="#8A8A8A" stroke-width="3" stroke-linecap="round" stroke-linejoin="round"/>
    <path d="M1219.388,1201.601 L1311.979,1273.768" fill-opacity="0" stroke="#8A8A8A" stroke-width="3" stroke-linecap="round" stroke-linejoin="round"/>
    <path d="M1311.979,1273.768 L1311.979,1450.782" fill-opacity="0" stroke="#8A8A8A" stroke-width="3" stroke-linecap="round" stroke-linejoin="round"/>
    <path d="M1311.979,1450.782 L1355.552,1480.738" fill-opacity="0" stroke="#8A8A8A" stroke-width="3" stroke-linecap="round" stroke-linejoin="round"/>
    <path d="M1355.552,1480.738 L1186.708,1698.601" fill-opacity="0" stroke="#8A8A8A" stroke-width="3" stroke-linecap="round" stroke-linejoin="round"/>
    <path d="M1186.708,1698.601 L1020.588,1571.968" fill-opacity="0" stroke="#8A8A8A" stroke-width="3" stroke-linecap="round" stroke-linejoin="round"/>
    <path d="M1020.588,1571.968 L934.804,1690.431" fill-opacity="0" stroke="#8A8A8A" stroke-width="3" stroke-linecap="round" stroke-linejoin="round"/>
    <path d="M934.804,1690.431 L443.251,1317.341" fill-opacity="0" stroke="#8A8A8A" stroke-width="3" stroke-linecap="round" stroke-linejoin="round"/>
    <path d="M443.251,1317.341 L597.117,1110.371" fill-opacity="0" stroke="#8A8A8A" stroke-width="3" stroke-linecap="round" stroke-linejoin="round"/>
    <path d="M597.117,1110.371 L588.947,1050.459" fill-opacity="0" stroke="#8A8A8A" stroke-width="3" stroke-linecap="round" stroke-linejoin="round"/>
    <path d="M588.947,1050.459 L816.341,746.812" fill-opacity="0" stroke="#8A8A8A" stroke-width="3" stroke-linecap="round" stroke-linejoin="round"/>
    <path d="M816.341,746.812 L847.659,769.96" fill-opacity="0" stroke="#8A8A8A" stroke-width="3" stroke-linecap="round" stroke-linejoin="round"/>
    <path d="M723.749,869.36 L1000.163,1084.5" fill-opacity="0" stroke="#8A8A8A" stroke-width="3" stroke-linecap="round" stroke-linejoin="round"/>
    <path d="M1000.163,1084.5 L1054.338,1019.392" fill-opacity="0" stroke="#8A8A8A" stroke-width="3" stroke-linecap="round" stroke-linejoin="round"/>
    <path d="M514.056,994.632 L883.062,508.525" fill-opacity="0" stroke="#8A8A8A" stroke-width="3" stroke-linecap="round" stroke-linejoin="round"/>
    <path d="M883.062,508.525 L1075.053,654.221" fill-opacity="0" stroke="#8A8A8A" stroke-width="3" stroke-linecap="round" stroke-linejoin="round"/>
    <path d="M1075.053,654.221 L1311.979,654.221" fill-opacity="0" stroke="#8A8A8A" stroke-width="3" stroke-linecap="round" stroke-linejoin="round"/>
    <path d="M1311.979,654.221 L1311.979,1084.5" fill-opacity="0" stroke="#8A8A8A" stroke-width="3" stroke-linecap="round" stroke-linejoin="round"/>
    <path d="M1209.432,869.36 L1249.131,843.655" fill-opacity="0" stroke="#8A8A8A" stroke-width="3" stroke-linecap="round" stroke-linejoin="round"/>
    <path d="M1209.432,872.239 L1254.425,852.124" fill-opacity="0" stroke="#8A8A8A" stroke-width="3" stroke-linecap="round" stroke-linejoin="round"/>
    <path d="M1214.725,877.532 L1260.777,861.485" fill-opacity="0" stroke="#8A8A8A" stroke-width="3" stroke-linecap="round" stroke-linejoin="round"/>
    <path d="M1214.725,884.413 L1260.777,869.36" fill-opacity="0" stroke="#8A8A8A" stroke-width="3" stroke-linecap="round" stroke-linejoin="round"/>
    <path d="M1219.388,891.824 L1264.482,881.095" fill-opacity="0" stroke="#8A8A8A" stroke-width="3" stroke-linecap="round" stroke-linejoin="round"/>
    <path d="M1219.388,925.448 L1264.482,938.405" fill-opacity="0" stroke="#8A8A8A" stroke-width="3" stroke-linecap="round" stroke-linejoin="round"/>
    <path d="M1214.725,932.749 L1260.777,949.521" fill-opacity="0" stroke="#8A8A8A" stroke-width="3" stroke-linecap="round" stroke-linejoin="round"/>
    <path d="M1212.078,938.405 L1260.777,960.481" fill-opacity="0" stroke="#8A8A8A" stroke-width="3" stroke-linecap="round" stroke-linejoin="round"/>
    <path d="M1209.432,946.345 L1257.601,968.577" fill-opacity="0" stroke="#8A8A8A" stroke-width="3" stroke-linecap="round" stroke-linejoin="round"/>
    <path d="M1180.319,976.517 L1212.078,1019.392" fill-opacity="0" stroke="#8A8A8A" stroke-width="3" stroke-linecap="round" stroke-linejoin="round"/>
    <path d="M1175.025,980.222 L1202.021,1025.744" fill-opacity="0" stroke="#8A8A8A" stroke-width="3" stroke-linecap="round" stroke-linejoin="round"/>
    <path d="M1167.085,984.457 L1193.552,1031.038" fill-opacity="0" stroke="#8A8A8A" stroke-width="3" stroke-linecap="round" stroke-linejoin="round"/>
    <path d="M1154.911,988.438 L1180.319,1036.86" fill-opacity="0" stroke="#8A8A8A" stroke-width="3" stroke-linecap="round" stroke-linejoin="round"/>
    <path d="M1091.391,976.517 L1056.688,1016.865" fill-opacity="0" stroke="#8A8A8A" stroke-width="3" stroke-linecap="round" stroke-linejoin="round"/>
    <path d="M1083.98,968.577 L1050.544,1012.511" fill-opacity="0" stroke="#8A8A8A" stroke-width="3" stroke-linecap="round" stroke-linejoin="round"/>
    <path d="M1075.053,960.481 L1044.81,1008.26" fill-opacity="0" stroke="#8A8A8A" stroke-width="3" stroke-linecap="round" stroke-linejoin="round"/>
    <path d="M1070.747,955.862 L1038.458,1002.801" fill-opacity="0" stroke="#8A8A8A" stroke-width="3" stroke-linecap="round" stroke-linejoin="round"/>
    <path d="M459.591,1002.801 L514.056,994.632" fill-opacity="0" stroke="#8A8A8A" stroke-width="3" stroke-linecap="round" stroke-linejoin="round"/>
    <path d="M524.95,798.555 L610.733,869.36" fill-opacity="0" stroke="#8A8A8A" stroke-width="3" stroke-linecap="round" stroke-linejoin="round"/>
    <path d="M524.95,798.555 L798.64,437.719" fill-opacity="0" stroke="#8A8A8A" stroke-width="3" stroke-linecap="round" stroke-linejoin="round"/>
    <path d="M798.64,437.719 L883.062,508.525" fill-opacity="0" stroke="#8A8A8A" stroke-width="3" stroke-linecap="round" stroke-linejoin="round"/>
    <path d="M550.821,769.96 L635.243,835.319" fill-opacity="0" stroke="#8A8A8A" stroke-width="3" stroke-linecap="round" stroke-linejoin="round"/>
    <path d="M610.733,686.9 L697.878,753.621" fill-opacity="0" stroke="#8A8A8A" stroke-width="3" stroke-linecap="round" stroke-linejoin="round"/>
    <path d="M647.497,639.243 L731.919,707.325" fill-opacity="0" stroke="#8A8A8A" stroke-width="3" stroke-linecap="round" stroke-linejoin="round"/>
    <path d="M667.922,612.01 L755.067,678.73" fill-opacity="0" stroke="#8A8A8A" stroke-width="3" stroke-linecap="round" stroke-linejoin="round"/>
    <path d="M697.878,572.522 L786.385,639.243" fill-opacity="0" stroke="#8A8A8A" stroke-width="3" stroke-linecap="round" stroke-linejoin="round"/>
    <path d="M764.599,482.654 L847.659,549.374" fill-opacity="0" stroke="#8A8A8A" stroke-width="3" stroke-linecap="round" stroke-linejoin="round"/>
    <path d="M713.464,729.953 C702.145,720.528 700.858,703.414 710.589,691.729 L731.083,708.795 z" fill-opacity="0" stroke="#8A8A8A" stroke-width="3" stroke-linecap="round" stroke-linejoin="round"/>
    <path d="M668.9,766.739 C660.191,759.987 660.615,744.86 669.847,732.953 L685.616,745.18 z" fill-opacity="0" stroke="#8A8A8A" stroke-width="3" stroke-linecap="round" stroke-linejoin="round"/>
    <path d="M563.065,748.492 L606.033,780.547" fill-opacity="0" stroke="#8A8A8A" stroke-width="3" stroke-linecap="round" stroke-linejoin="round"/>
    <path d="M573.294,785.788 C586.485,776.18 601.142,773.833 606.033,780.547" fill-opacity="0" stroke="#8A8A8A" stroke-width="3" stroke-linecap="round" stroke-linejoin="round"/>
    <path d="M579.434,728.372 L620.355,759.745" fill-opacity="0" stroke="#8A8A8A" stroke-width="3" stroke-linecap="round" stroke-linejoin="round"/>
    <path d="M595.12,707.325 L635.243,737.579" fill-opacity="0" stroke="#8A8A8A" stroke-width="3" stroke-linecap="round" stroke-linejoin="round"/>
    <path d="M586.616,764.316 C599.807,754.707 614.465,752.36 619.355,759.074" fill-opacity="0" stroke="#8A8A8A" stroke-width="3" stroke-linecap="round" stroke-linejoin="round"/>
    <path d="M600.348,742.6 C614.324,732.42 629.947,730.061 635.243,737.332" fill-opacity="0" stroke="#8A8A8A" stroke-width="3" stroke-linecap="round" stroke-linejoin="round"/>
    <path d="M615.925,724.871 C630.252,714.434 645.832,711.416 650.722,718.13" fill-opacity="0" stroke="#8A8A8A" stroke-width="3" stroke-linecap="round" stroke-linejoin="round"/>
    <path d="M716.861,546.425 L759.829,578.48" fill-opacity="0" stroke="#8A8A8A" stroke-width="3" stroke-linecap="round" stroke-linejoin="round"/>
    <path d="M720.392,588.601 C737.282,576.298 754.938,571.767 759.829,578.48" fill-opacity="0" stroke="#8A8A8A" stroke-width="3" stroke-linecap="round" stroke-linejoin="round"/>
    <path d="M733.23,526.305 L774.151,557.678" fill-opacity="0" stroke="#8A8A8A" stroke-width="3" stroke-linecap="round" stroke-linejoin="round"/>
    <path d="M748.916,505.258 L789.039,535.513" fill-opacity="0" stroke="#8A8A8A" stroke-width="3" stroke-linecap="round" stroke-linejoin="round"/>
    <path d="M740.412,562.249 C753.603,552.641 768.261,550.294 773.151,557.007" fill-opacity="0" stroke="#8A8A8A" stroke-width="3" stroke-linecap="round" stroke-linejoin="round"/>
    <path d="M754.144,540.533 C768.12,530.353 783.743,527.995 789.039,535.265" fill-opacity="0" stroke="#8A8A8A" stroke-width="3" stroke-linecap="round" stroke-linejoin="round"/>
    <path d="M769.721,522.804 C784.048,512.368 799.628,509.35 804.518,516.063" fill-opacity="0" stroke="#8A8A8A" stroke-width="3" stroke-linecap="round" stroke-linejoin="round"/>
    <path d="M785.229,603.72 C776.215,597.381 761.882,602.232 753.214,614.556 L769.535,626.035 z" fill-opacity="0" stroke="#8A8A8A" stroke-width="3" stroke-linecap="round" stroke-linejoin="round"/>
    <path d="M739.882,649.622 C746.331,640.686 761.463,640.589 773.681,649.405 L762.005,665.586 z" fill-opacity="0" stroke="#8A8A8A" stroke-width="3" stroke-linecap="round" stroke-linejoin="round"/>
    <path d="M672.11,655.9 C682.204,642.827 679.452,623.786 665.963,613.371 L647.686,637.041 z" fill-opacity="0" stroke="#8A8A8A" stroke-width="3" stroke-linecap="round" stroke-linejoin="round"/>
    <path d="M777.058,700.36 C766.869,713.359 747.736,715.374 734.323,704.861 L752.771,681.324 z" fill-opacity="0" stroke="#8A8A8A" stroke-width="3" stroke-linecap="round" stroke-linejoin="round"/>
    <path d="M629.435,840.803 C616.31,830.979 597.747,832.275 587.974,843.697 L611.739,861.485 z" fill-opacity="0" stroke="#8A8A8A" stroke-width="3" stroke-linecap="round" stroke-linejoin="round"/>
    <g>
      <path d="M930.069,994.668 C918.387,985.227 900.915,987.477 891.044,999.691 L912.197,1016.785 z" fill-opacity="0" stroke="#8A8A8A" stroke-width="3" stroke-linecap="round" stroke-linejoin="round"/>
      <path d="M887.763,960.481 C899.446,969.921 900.915,987.476 891.044,999.691 L869.891,982.598 z" fill-opacity="0" stroke="#8A8A8A" stroke-width="3" stroke-linecap="round" stroke-linejoin="round"/>
    </g>
    <g>
      <path d="M1018.521,1016.865 C1011.18,1026.112 1015.199,1041.525 1027.499,1051.289 L1040.792,1034.545 z" fill-opacity="0" stroke="#8A8A8A" stroke-width="3" stroke-linecap="round" stroke-linejoin="round"/>
      <path d="M991.935,1050.353 C999.277,1041.105 1015.199,1041.525 1027.499,1051.289 L1014.206,1068.033 z" fill-opacity="0" stroke="#8A8A8A" stroke-width="3" stroke-linecap="round" stroke-linejoin="round"/>
    </g>
    <path d="M550.821,942.994 L628.844,998.264" fill-opacity="0" stroke="#8A8A8A" stroke-width="3" stroke-linecap="round" stroke-linejoin="round"/>
    <path d="M610.733,869.36 L683.093,925.448" fill-opacity="0" stroke="#8A8A8A" stroke-width="3" stroke-linecap="round" stroke-linejoin="round"/>
    <g>
      <path d="M596.086,1008.26 C583.84,999.642 581.032,983.169 589.813,971.465 L611.986,987.069 z" fill-opacity="0" stroke="#8A8A8A" stroke-width="3" stroke-linecap="round" stroke-linejoin="round"/>
      <path d="M551.739,977.053 C563.985,985.67 581.032,983.169 589.813,971.465 L567.64,955.862 z" fill-opacity="0" stroke="#8A8A8A" stroke-width="3" stroke-linecap="round" stroke-linejoin="round"/>
    </g>
    <g>
      <path d="M610.091,900.18 C622.12,909.173 638.26,907.92 646.14,897.38 L624.359,881.095 z" fill-opacity="0" stroke="#8A8A8A" stroke-width="3" stroke-linecap="round" stroke-linejoin="round"/>
      <path d="M653.654,932.749 C641.624,923.755 638.26,907.92 646.14,897.38 L667.922,913.664 z" fill-opacity="0" stroke="#8A8A8A" stroke-width="3" stroke-linecap="round" stroke-linejoin="round"/>
    </g>
    <path d="M597.117,1110.371 L689.145,1178.109" fill-opacity="0" stroke="#8A8A8A" stroke-width="3" stroke-linecap="round" stroke-linejoin="round"/>
    <path d="M689.145,1178.109 L734.323,1115.821" fill-opacity="0" stroke="#8A8A8A" stroke-width="3" stroke-linecap="round" stroke-linejoin="round"/>
    <path d="M734.323,1115.821 L610.733,1021.864" fill-opacity="0" stroke="#8A8A8A" stroke-width="3" stroke-linecap="round" stroke-linejoin="round"/>
    <path d="M1138.038,988.438 C1093.11,988.438 1056.688,952.486 1056.688,908.137 C1056.688,863.788 1093.11,827.836 1138.038,827.836 C1182.966,827.836 1219.388,863.788 1219.388,908.137 C1219.388,952.486 1182.966,988.438 1138.038,988.438 z" fill-opacity="0" stroke="#8A8A8A" stroke-width="3" stroke-linecap="round" stroke-linejoin="round"/>
    <path d="M1134.541,1044.26 C1060.326,1044.26 1000.163,984.369 1000.163,910.489 C1000.163,836.61 1060.326,776.719 1134.541,776.719 C1208.756,776.719 1268.919,836.61 1268.919,910.489 C1268.919,984.369 1208.756,1044.26 1134.541,1044.26 z" fill-opacity="0" stroke="#8A8A8A" stroke-width="3" stroke-linecap="round" stroke-linejoin="round"/>
    <g>
      <path d="M1042.681,1588.047 C1033.961,1600.219 1017.464,1602.889 1005.835,1594.01 L1021.625,1571.968 z" fill-opacity="0" stroke="#8A8A8A" stroke-width="3" stroke-linecap="round" stroke-linejoin="round"/>
      <path d="M1011.102,1632.129 C1019.823,1619.956 1017.464,1602.889 1005.835,1594.01 L990.046,1616.051 z" fill-opacity="0" stroke="#8A8A8A" stroke-width="3" stroke-linecap="round" stroke-linejoin="round"/>
    </g>
    <path d="M1303.897,685.837 C1287.397,685.111 1274.628,670.721 1275.376,653.695 L1305.253,655.009 z" fill-opacity="0" stroke="#8A8A8A" stroke-width="3" stroke-linecap="round" stroke-linejoin="round"/>
    <g>
      <path d="M1083.98,631.292 C1072.223,621.945 1056.053,622.718 1047.864,633.019 L1069.152,649.944 z" fill-opacity="0" stroke="#8A8A8A" stroke-width="3" stroke-linecap="round" stroke-linejoin="round"/>
      <path d="M1041.404,597.443 C1053.161,606.79 1056.053,622.718 1047.864,633.019 L1026.575,616.095 z" fill-opacity="0" stroke="#8A8A8A" stroke-width="3" stroke-linecap="round" stroke-linejoin="round"/>
    </g>
    <path d="M914.111,531.045 L976.641,447.011" fill-opacity="0" stroke="#8A8A8A" stroke-width="3" stroke-linecap="round" stroke-linejoin="round"/>
    <path d="M976.641,447.011 L1030.833,489.531" fill-opacity="0" stroke="#8A8A8A" stroke-width="3" stroke-linecap="round" stroke-linejoin="round"/>
    <path d="M1030.833,489.531 L969.971,572.522" fill-opacity="0" stroke="#8A8A8A" stroke-width="3" stroke-linecap="round" stroke-linejoin="round"/>
    <path d="M930.069,531.045 L963.301,557.678" fill-opacity="0" stroke="#8A8A8A" stroke-width="3" stroke-linecap="round" stroke-linejoin="round"/>
    <path d="M963.301,557.679 L1020.588,482.654" fill-opacity="0" stroke="#8A8A8A" stroke-width="3" stroke-linecap="round" stroke-linejoin="round"/>
    <path d="M930.069,531.045 L985.812,454.514" fill-opacity="0" stroke="#8A8A8A" stroke-width="3" stroke-linecap="round" stroke-linejoin="round"/>
    <path d="M985.811,454.514 L963.301,557.679" fill-opacity="0" stroke="#8A8A8A" stroke-width="3" stroke-linecap="round" stroke-linejoin="round"/>
    <path d="M930.069,531.045 L1020.588,482.654" fill-opacity="0" stroke="#8A8A8A" stroke-width="3" stroke-linecap="round" stroke-linejoin="round"/>
    <text transform="matrix(1, 0, 0, 1, 878.124, 1332.228)">
      <tspan x="-52.553" y="12" font-family="HelveticaNeue-Bold" font-size="33" fill="#6B7280">Mensa</tspan>
    </text>
    <path d="M726.595,845.39 L741.329,823.245 L759.329,835.221 L744.594,857.366 L726.595,845.39 z" fill="#FFFFFF"/>
    <g>
      <path d="M470.123,1236.61 C479.095,1224.622 495.644,1222.297 507.085,1231.417 L490.84,1253.124 z" fill-opacity="0" stroke="#8A8A8A" stroke-width="3" stroke-linecap="round" stroke-linejoin="round"/>
      <path d="M502.614,1193.196 C493.642,1205.184 495.644,1222.297 507.085,1231.417 L523.331,1209.71 z" fill-opacity="0" stroke="#8A8A8A" stroke-width="3" stroke-linecap="round" stroke-linejoin="round"/>
    </g>
  </g>
</svg>
