<?xml version="1.0" encoding="UTF-8"?>
<!DOCTYPE svg PUBLIC "-//W3C//DTD SVG 1.1//EN" "http://www.w3.org/Graphics/SVG/1.1/DTD/svg11.dtd">
<svg version="1.1" xmlns="http://www.w3.org/2000/svg" xmlns:xlink="http://www.w3.org/1999/xlink" x="0" y="0" width="1788" height="2940" viewBox="0, 0, 1788, 2940">
  <g id="Background">
    <rect x="0" y="0" width="1788" height="2940" fill="#FFFFFF"/>
  </g>
  <g id="Layer_1">
    <g>
      <path d="M878.532,653.372 L801.209,751.164" fill-opacity="0" stroke="#8A8A8A" stroke-width="3" stroke-linecap="round" stroke-linejoin="round"/>
      <path d="M801.209,751.164 L878.532,811.43" fill-opacity="0" stroke="#8A8A8A" stroke-width="3" stroke-linecap="round" stroke-linejoin="round"/>
      <path d="M878.532,811.43 L878.532,959.255" fill-opacity="0" stroke="#8A8A8A" stroke-width="3" stroke-linecap="round" stroke-linejoin="round"/>
      <path d="M878.532,959.255 L914.92,984.271" fill-opacity="0" stroke="#8A8A8A" stroke-width="3" stroke-linecap="round" stroke-linejoin="round"/>
      <path d="M914.92,984.271 L773.918,1166.209" fill-opacity="0" stroke="#8A8A8A" stroke-width="3" stroke-linecap="round" stroke-linejoin="round"/>
      <path d="M773.918,1166.209 L635.191,1060.458" fill-opacity="0" stroke="#8A8A8A" stroke-width="3" stroke-linecap="round" stroke-linejoin="round"/>
      <path d="M635.191,1060.458 L563.553,1159.386" fill-opacity="0" stroke="#8A8A8A" stroke-width="3" stroke-linecap="round" stroke-linejoin="round"/>
      <path d="M563.553,1159.386 L153.056,847.818" fill-opacity="0" stroke="#8A8A8A" stroke-width="3" stroke-linecap="round" stroke-linejoin="round"/>
      <path d="M153.056,847.818 L281.55,674.977" fill-opacity="0" stroke="#8A8A8A" stroke-width="3" stroke-linecap="round" stroke-linejoin="round"/>
      <path d="M281.55,674.977 L274.727,624.944" fill-opacity="0" stroke="#8A8A8A" stroke-width="3" stroke-linecap="round" stroke-linejoin="round"/>
      <path d="M274.727,624.944 L464.624,371.369" fill-opacity="0" stroke="#8A8A8A" stroke-width="3" stroke-linecap="round" stroke-linejoin="round"/>
      <path d="M464.624,371.369 L490.778,390.7" fill-opacity="0" stroke="#8A8A8A" stroke-width="3" stroke-linecap="round" stroke-linejoin="round"/>
      <path d="M387.301,473.709 L618.134,653.372" fill-opacity="0" stroke="#8A8A8A" stroke-width="3" stroke-linecap="round" stroke-linejoin="round"/>
      <path d="M618.134,653.372 L663.376,599.001" fill-opacity="0" stroke="#8A8A8A" stroke-width="3" stroke-linecap="round" stroke-linejoin="round"/>
      <path d="M212.186,578.323 L520.343,172.375" fill-opacity="0" stroke="#8A8A8A" stroke-width="3" stroke-linecap="round" stroke-linejoin="round"/>
      <path d="M520.343,172.375 L680.675,294.045" fill-opacity="0" stroke="#8A8A8A" stroke-width="3" stroke-linecap="round" stroke-linejoin="round"/>
      <path d="M680.675,294.045 L878.532,294.045" fill-opacity="0" stroke="#8A8A8A" stroke-width="3" stroke-linecap="round" stroke-linejoin="round"/>
      <path d="M878.532,294.045 L878.532,653.372" fill-opacity="0" stroke="#8A8A8A" stroke-width="3" stroke-linecap="round" stroke-linejoin="round"/>
      <path d="M792.895,473.709 L826.048,452.242" fill-opacity="0" stroke="#8A8A8A" stroke-width="3" stroke-linecap="round" stroke-linejoin="round"/>
      <path d="M792.895,476.113 L830.468,459.315" fill-opacity="0" stroke="#8A8A8A" stroke-width="3" stroke-linecap="round" stroke-linejoin="round"/>
      <path d="M797.315,480.533 L835.773,467.132" fill-opacity="0" stroke="#8A8A8A" stroke-width="3" stroke-linecap="round" stroke-linejoin="round"/>
      <path d="M797.315,486.28 L835.773,473.709" fill-opacity="0" stroke="#8A8A8A" stroke-width="3" stroke-linecap="round" stroke-linejoin="round"/>
      <path d="M801.209,492.468 L838.867,483.509" fill-opacity="0" stroke="#8A8A8A" stroke-width="3" stroke-linecap="round" stroke-linejoin="round"/>
      <path d="M801.209,520.548 L838.867,531.368" fill-opacity="0" stroke="#8A8A8A" stroke-width="3" stroke-linecap="round" stroke-linejoin="round"/>
      <path d="M797.315,526.644 L835.773,540.651" fill-opacity="0" stroke="#8A8A8A" stroke-width="3" stroke-linecap="round" stroke-linejoin="round"/>
      <path d="M795.105,531.368 L835.773,549.804" fill-opacity="0" stroke="#8A8A8A" stroke-width="3" stroke-linecap="round" stroke-linejoin="round"/>
      <path d="M792.895,537.999 L833.121,556.565" fill-opacity="0" stroke="#8A8A8A" stroke-width="3" stroke-linecap="round" stroke-linejoin="round"/>
      <path d="M768.582,563.195 L795.105,599.001" fill-opacity="0" stroke="#8A8A8A" stroke-width="3" stroke-linecap="round" stroke-linejoin="round"/>
      <path d="M764.162,566.29 L786.706,604.305" fill-opacity="0" stroke="#8A8A8A" stroke-width="3" stroke-linecap="round" stroke-linejoin="round"/>
      <path d="M757.531,569.826 L779.633,608.726" fill-opacity="0" stroke="#8A8A8A" stroke-width="3" stroke-linecap="round" stroke-linejoin="round"/>
      <path d="M747.364,573.151 L768.582,613.588" fill-opacity="0" stroke="#8A8A8A" stroke-width="3" stroke-linecap="round" stroke-linejoin="round"/>
      <path d="M694.319,563.195 L665.339,596.89" fill-opacity="0" stroke="#8A8A8A" stroke-width="3" stroke-linecap="round" stroke-linejoin="round"/>
      <path d="M688.13,556.565 L660.207,593.254" fill-opacity="0" stroke="#8A8A8A" stroke-width="3" stroke-linecap="round" stroke-linejoin="round"/>
      <path d="M680.675,549.804 L655.419,589.704" fill-opacity="0" stroke="#8A8A8A" stroke-width="3" stroke-linecap="round" stroke-linejoin="round"/>
      <path d="M677.079,545.946 L650.114,585.146" fill-opacity="0" stroke="#8A8A8A" stroke-width="3" stroke-linecap="round" stroke-linejoin="round"/>
      <path d="M166.701,585.146 L212.186,578.323" fill-opacity="0" stroke="#8A8A8A" stroke-width="3" stroke-linecap="round" stroke-linejoin="round"/>
      <path d="M221.283,414.579 L292.921,473.709" fill-opacity="0" stroke="#8A8A8A" stroke-width="3" stroke-linecap="round" stroke-linejoin="round"/>
      <path d="M221.283,414.579 L449.842,113.245" fill-opacity="0" stroke="#8A8A8A" stroke-width="3" stroke-linecap="round" stroke-linejoin="round"/>
      <path d="M449.842,113.245 L520.343,172.375" fill-opacity="0" stroke="#8A8A8A" stroke-width="3" stroke-linecap="round" stroke-linejoin="round"/>
      <path d="M242.888,390.7 L313.389,445.281" fill-opacity="0" stroke="#8A8A8A" stroke-width="3" stroke-linecap="round" stroke-linejoin="round"/>
      <path d="M292.921,321.336 L365.696,377.054" fill-opacity="0" stroke="#8A8A8A" stroke-width="3" stroke-linecap="round" stroke-linejoin="round"/>
      <path d="M323.623,281.537 L394.123,338.393" fill-opacity="0" stroke="#8A8A8A" stroke-width="3" stroke-linecap="round" stroke-linejoin="round"/>
      <path d="M340.679,258.795 L413.454,314.513" fill-opacity="0" stroke="#8A8A8A" stroke-width="3" stroke-linecap="round" stroke-linejoin="round"/>
      <path d="M365.696,225.819 L439.608,281.537" fill-opacity="0" stroke="#8A8A8A" stroke-width="3" stroke-linecap="round" stroke-linejoin="round"/>
      <path d="M421.414,150.77 L490.778,206.488" fill-opacity="0" stroke="#8A8A8A" stroke-width="3" stroke-linecap="round" stroke-linejoin="round"/>
      <path d="M378.711,357.29 C369.259,349.419 368.184,335.127 376.31,325.368 L393.425,339.62 z" fill-opacity="0" stroke="#8A8A8A" stroke-width="3" stroke-linecap="round" stroke-linejoin="round"/>
      <path d="M341.496,388.01 C334.223,382.371 334.577,369.739 342.287,359.795 L355.455,370.005 z" fill-opacity="0" stroke="#8A8A8A" stroke-width="3" stroke-linecap="round" stroke-linejoin="round"/>
      <path d="M253.113,372.771 L288.995,399.54" fill-opacity="0" stroke="#8A8A8A" stroke-width="3" stroke-linecap="round" stroke-linejoin="round"/>
      <path d="M261.655,403.918 C272.671,395.894 284.911,393.934 288.995,399.54" fill-opacity="0" stroke="#8A8A8A" stroke-width="3" stroke-linecap="round" stroke-linejoin="round"/>
      <path d="M266.783,355.969 L300.956,382.169" fill-opacity="0" stroke="#8A8A8A" stroke-width="3" stroke-linecap="round" stroke-linejoin="round"/>
      <path d="M279.882,338.393 L313.389,363.658" fill-opacity="0" stroke="#8A8A8A" stroke-width="3" stroke-linecap="round" stroke-linejoin="round"/>
      <path d="M272.781,385.986 C283.796,377.962 296.037,376.002 300.121,381.609" fill-opacity="0" stroke="#8A8A8A" stroke-width="3" stroke-linecap="round" stroke-linejoin="round"/>
      <path d="M284.248,367.851 C295.919,359.35 308.966,357.38 313.389,363.451" fill-opacity="0" stroke="#8A8A8A" stroke-width="3" stroke-linecap="round" stroke-linejoin="round"/>
      <path d="M297.256,353.045 C309.221,344.33 322.231,341.809 326.315,347.416" fill-opacity="0" stroke="#8A8A8A" stroke-width="3" stroke-linecap="round" stroke-linejoin="round"/>
      <path d="M381.548,204.025 L417.431,230.794" fill-opacity="0" stroke="#8A8A8A" stroke-width="3" stroke-linecap="round" stroke-linejoin="round"/>
      <path d="M384.497,239.246 C398.602,228.972 413.347,225.188 417.431,230.794" fill-opacity="0" stroke="#8A8A8A" stroke-width="3" stroke-linecap="round" stroke-linejoin="round"/>
      <path d="M395.218,187.223 L429.391,213.423" fill-opacity="0" stroke="#8A8A8A" stroke-width="3" stroke-linecap="round" stroke-linejoin="round"/>
      <path d="M408.318,169.647 L441.824,194.912" fill-opacity="0" stroke="#8A8A8A" stroke-width="3" stroke-linecap="round" stroke-linejoin="round"/>
      <path d="M401.216,217.24 C412.232,209.216 424.472,207.256 428.556,212.863" fill-opacity="0" stroke="#8A8A8A" stroke-width="3" stroke-linecap="round" stroke-linejoin="round"/>
      <path d="M412.684,199.105 C424.355,190.604 437.401,188.634 441.824,194.705" fill-opacity="0" stroke="#8A8A8A" stroke-width="3" stroke-linecap="round" stroke-linejoin="round"/>
      <path d="M425.691,184.299 C437.656,175.584 450.667,173.063 454.751,178.67" fill-opacity="0" stroke="#8A8A8A" stroke-width="3" stroke-linecap="round" stroke-linejoin="round"/>
      <path d="M438.642,251.872 C431.115,246.578 419.145,250.63 411.907,260.922 L425.536,270.507 z" fill-opacity="0" stroke="#8A8A8A" stroke-width="3" stroke-linecap="round" stroke-linejoin="round"/>
      <path d="M400.773,290.205 C406.158,282.742 418.795,282.661 428.998,290.024 L419.248,303.536 z" fill-opacity="0" stroke="#8A8A8A" stroke-width="3" stroke-linecap="round" stroke-linejoin="round"/>
      <path d="M344.177,295.448 C352.606,284.531 350.308,268.63 339.043,259.932 L323.78,279.698 z" fill-opacity="0" stroke="#8A8A8A" stroke-width="3" stroke-linecap="round" stroke-linejoin="round"/>
      <path d="M431.819,332.576 C423.31,343.432 407.332,345.115 396.131,336.335 L411.537,316.68 z" fill-opacity="0" stroke="#8A8A8A" stroke-width="3" stroke-linecap="round" stroke-linejoin="round"/>
      <path d="M308.539,449.86 C297.578,441.656 282.076,442.738 273.914,452.278 L293.761,467.132 z" fill-opacity="0" stroke="#8A8A8A" stroke-width="3" stroke-linecap="round" stroke-linejoin="round"/>
      <g>
        <path d="M559.599,578.353 C549.843,570.47 535.252,572.348 527.009,582.549 L544.673,596.823 z" fill-opacity="0" stroke="#8A8A8A" stroke-width="3" stroke-linecap="round" stroke-linejoin="round"/>
        <path d="M524.269,549.804 C534.025,557.688 535.252,572.348 527.009,582.548 L509.344,568.274 z" fill-opacity="0" stroke="#8A8A8A" stroke-width="3" stroke-linecap="round" stroke-linejoin="round"/>
      </g>
      <g>
        <path d="M633.465,596.89 C627.334,604.612 630.691,617.483 640.962,625.638 L652.063,611.655 z" fill-opacity="0" stroke="#8A8A8A" stroke-width="3" stroke-linecap="round" stroke-linejoin="round"/>
        <path d="M611.263,624.856 C617.394,617.133 630.691,617.483 640.962,625.638 L629.861,639.621 z" fill-opacity="0" stroke="#8A8A8A" stroke-width="3" stroke-linecap="round" stroke-linejoin="round"/>
      </g>
      <path d="M242.888,535.201 L308.045,581.356" fill-opacity="0" stroke="#8A8A8A" stroke-width="3" stroke-linecap="round" stroke-linejoin="round"/>
      <path d="M292.921,473.709 L353.348,520.548" fill-opacity="0" stroke="#8A8A8A" stroke-width="3" stroke-linecap="round" stroke-linejoin="round"/>
      <g>
        <path d="M280.689,589.704 C270.462,582.507 268.117,568.75 275.45,558.977 L293.967,572.007 z" fill-opacity="0" stroke="#8A8A8A" stroke-width="3" stroke-linecap="round" stroke-linejoin="round"/>
        <path d="M243.655,563.643 C253.882,570.839 268.117,568.75 275.45,558.977 L256.933,545.946 z" fill-opacity="0" stroke="#8A8A8A" stroke-width="3" stroke-linecap="round" stroke-linejoin="round"/>
      </g>
      <g>
        <path d="M292.384,499.446 C302.43,506.957 315.909,505.91 322.489,497.108 L304.299,483.509 z" fill-opacity="0" stroke="#8A8A8A" stroke-width="3" stroke-linecap="round" stroke-linejoin="round"/>
        <path d="M328.764,526.644 C318.718,519.134 315.909,505.91 322.489,497.108 L340.679,510.707 z" fill-opacity="0" stroke="#8A8A8A" stroke-width="3" stroke-linecap="round" stroke-linejoin="round"/>
      </g>
      <path d="M281.55,674.977 L358.402,731.545" fill-opacity="0" stroke="#8A8A8A" stroke-width="3" stroke-linecap="round" stroke-linejoin="round"/>
      <path d="M358.402,731.545 L396.131,679.528" fill-opacity="0" stroke="#8A8A8A" stroke-width="3" stroke-linecap="round" stroke-linejoin="round"/>
      <path d="M396.131,679.528 L292.921,601.065" fill-opacity="0" stroke="#8A8A8A" stroke-width="3" stroke-linecap="round" stroke-linejoin="round"/>
      <path d="M733.274,573.151 C695.754,573.151 665.338,543.127 665.338,506.091 C665.338,469.055 695.754,439.032 733.274,439.032 C770.793,439.032 801.209,469.055 801.209,506.091 C801.209,543.127 770.793,573.151 733.274,573.151 z" fill-opacity="0" stroke="#8A8A8A" stroke-width="3" stroke-linecap="round" stroke-linejoin="round"/>
      <path d="M730.353,619.768 C668.376,619.768 618.134,569.753 618.134,508.056 C618.134,446.359 668.376,396.344 730.353,396.344 C792.33,396.344 842.573,446.359 842.573,508.056 C842.573,569.753 792.33,619.768 730.353,619.768 z" fill-opacity="0" stroke="#8A8A8A" stroke-width="3" stroke-linecap="round" stroke-linejoin="round"/>
      <g>
        <path d="M653.641,1073.885 C646.359,1084.05 632.582,1086.28 622.871,1078.864 L636.057,1060.458 z" fill-opacity="0" stroke="#8A8A8A" stroke-width="3" stroke-linecap="round" stroke-linejoin="round"/>
        <path d="M627.269,1110.698 C634.552,1100.532 632.582,1086.28 622.871,1078.864 L609.685,1097.271 z" fill-opacity="0" stroke="#8A8A8A" stroke-width="3" stroke-linecap="round" stroke-linejoin="round"/>
      </g>
      <path d="M871.783,320.448 C858.003,319.842 847.34,307.825 847.965,293.606 L872.915,294.704 z" fill-opacity="0" stroke="#8A8A8A" stroke-width="3" stroke-linecap="round" stroke-linejoin="round"/>
      <g>
        <path d="M688.13,274.898 C678.312,267.092 664.808,267.738 657.969,276.34 L675.747,290.474 z" fill-opacity="0" stroke="#8A8A8A" stroke-width="3" stroke-linecap="round" stroke-linejoin="round"/>
        <path d="M652.575,246.63 C662.393,254.436 664.808,267.738 657.969,276.34 L640.191,262.206 z" fill-opacity="0" stroke="#8A8A8A" stroke-width="3" stroke-linecap="round" stroke-linejoin="round"/>
      </g>
      <path d="M546.272,191.181 L598.49,121.004" fill-opacity="0" stroke="#8A8A8A" stroke-width="3" stroke-linecap="round" stroke-linejoin="round"/>
      <path d="M598.49,121.004 L643.746,156.513" fill-opacity="0" stroke="#8A8A8A" stroke-width="3" stroke-linecap="round" stroke-linejoin="round"/>
      <path d="M643.746,156.513 L592.92,225.819" fill-opacity="0" stroke="#8A8A8A" stroke-width="3" stroke-linecap="round" stroke-linejoin="round"/>
      <path d="M559.599,191.181 L587.351,213.423" fill-opacity="0" stroke="#8A8A8A" stroke-width="3" stroke-linecap="round" stroke-linejoin="round"/>
      <path d="M587.35,213.423 L635.191,150.77" fill-opacity="0" stroke="#8A8A8A" stroke-width="3" stroke-linecap="round" stroke-linejoin="round"/>
      <path d="M559.599,191.181 L606.149,127.27" fill-opacity="0" stroke="#8A8A8A" stroke-width="3" stroke-linecap="round" stroke-linejoin="round"/>
      <path d="M606.149,127.27 L587.35,213.423" fill-opacity="0" stroke="#8A8A8A" stroke-width="3" stroke-linecap="round" stroke-linejoin="round"/>
      <path d="M559.599,191.181 L635.191,150.77" fill-opacity="0" stroke="#8A8A8A" stroke-width="3" stroke-linecap="round" stroke-linejoin="round"/>
      <text transform="matrix(1, 0, 0, 1, 525.901, 864.912)">
        <tspan x="-52.553" y="10.553" font-family="HelveticaNeue-Bold" font-size="33" fill="#8A8A8A">Mensa</tspan>
      </text>
      <path d="M389.595,453.609 L401.899,435.116 L416.93,445.117 L404.626,463.61 L389.595,453.609 z" fill="#FFFFFF"/>
      <g>
        <path d="M175.497,780.4 C182.99,770.388 196.81,768.446 206.364,776.063 L192.797,794.19 z" fill-opacity="0" stroke="#8A8A8A" stroke-width="3" stroke-linecap="round" stroke-linejoin="round"/>
        <path d="M202.631,744.144 C195.138,754.156 196.809,768.446 206.364,776.063 L219.931,757.935 z" fill-opacity="0" stroke="#8A8A8A" stroke-width="3" stroke-linecap="round" stroke-linejoin="round"/>
      </g>
    </g>
  </g>
</svg>
